#!OML:ASF E:\emotionWalksFemale\Project 1\Capture day 1\Session 1\Female1.ASF
:FULLY-SPECIFIED
:DEGREES
1580
root 9.91187 15.3098 19.3 -5.69426 2.92779 -357.076
lowerback 10.339 0.262938 -2.03567
upperback -3.90235 -0.0578607 -1.24632
thorax -10.0075 0.0550903 -0.178761
lowerneck -6.53406 -3.93063 -8.80711
upperneck 14.304 -5.16949 5.9987
head 5.77601 -2.58492 2.97038
rclavicle 2.59662e-015 3.47873e-015
rhumerus -51.7491 -2.50814 -75.6847
rradius 25.3857
rwrist 35.3719
rhand 10.399 -59.3117
rfingers 7.12502
rthumb 35.5047 -805.748
lclavicle 2.59662e-015 3.47873e-015
lhumerus -37.5081 16.2057 61.9391
lradius 38.0798
lwrist -8.83819
lhand -8.33408 -31.9776
lfingers 7.12502
lthumb 17.5874 -2.75309
rfemur -23.4075 -1.838 20.4033
rtibia 67.4814
rfoot -8.99363 -17.5941
rtoes 1.39365
lfemur 2.26468 -10.5683 -31.9363
ltibia 24.7057
lfoot -19.3745 12.341
ltoes -10.765
1581
root 9.92836 15.2937 19.4445 -5.37079 3.66412 -356.083
lowerback 10.5279 0.0652496 -2.831
upperback -4.12194 -0.477457 -1.51178
thorax -10.3579 -0.100986 0.0607582
lowerneck -6.39013 -3.83772 -8.85322
upperneck 14.3926 -5.05253 5.99902
head 5.77097 -2.53342 2.9899
rclavicle 1.93194e-014 -3.10601e-014
rhumerus -53.1474 -1.74149 -75.6424
rradius 25.8682
rwrist 34.0836
rhand 10.4662 -59.0104
rfingers 7.12502
rthumb 35.5683 -805.432
lclavicle 1.93194e-014 -3.10601e-014
lhumerus -36.3954 14.8524 63.2341
lradius 38.8573
lwrist -8.12669
lhand -8.23022 -32.6848
lfingers 7.12502
lthumb 17.6873 -3.4693
rfemur -24.4207 -2.1733 19.1093
rtibia 65.686
rfoot -11.2283 -18.1781
rtoes -6.13783
lfemur 2.94348 -11.2211 -33.2938
ltibia 24.2566
lfoot -19.7602 12.3843
ltoes -9.69128
1582
root 9.9211 15.2906 19.6109 -5.53256 3.95025 -356.388
lowerback 10.013 -0.0804197 -2.77768
upperback -3.60346 -0.612591 -1.34543
thorax -9.47526 -0.175883 0.23759
lowerneck -6.51644 -3.76725 -8.76612
upperneck 13.8682 -4.94444 6.05958
head 5.6194 -2.46655 3.00027
rclavicle -2.27981e-015 1.61016e-014
rhumerus -53.4162 -1.53315 -75.5006
rradius 26.0699
rwrist 32.8232
rhand 9.51058 -58.6243
rfingers 7.12502
rthumb 34.662 -805.259
lclavicle -2.27981e-015 1.61016e-014
lhumerus -34.2718 14.1629 64.5102
lradius 39.4052
lwrist -7.91331
lhand -8.43389 -32.4134
lfingers 7.12502
lthumb 17.4913 -3.18034
rfemur -24.7603 -1.68198 19.5432
rtibia 63.4833
rfoot -11.5141 -19.5547
rtoes -2.937
lfemur 4.18796 -11.7092 -33.2093
ltibia 23.6755
lfoot -20.3669 12.5923
ltoes -9.22778
1583
root 9.91515 15.2802 19.7648 -5.41572 4.34291 -356.408
lowerback 10.3658 -0.187997 -2.88093
upperback -3.83307 -0.790851 -1.32345
thorax -9.93073 -0.247685 0.352275
lowerneck -6.34487 -3.71345 -8.39716
upperneck 14.0459 -4.88015 5.67941
head 5.62237 -2.44529 2.82702
rclavicle 1.12313e-014 -1.82385e-014
rhumerus -54.8578 -1.32791 -75.2264
rradius 26.7243
rwrist 31.863
rhand 9.40058 -58.4724
rfingers 7.12502
rthumb 34.5576 -805.131
lclavicle 1.12313e-014 -1.82385e-014
lhumerus -33.2005 12.5623 65.538
lradius 40.2139
lwrist -7.29782
lhand -8.59785 -31.0426
lfingers 7.12502
lthumb 17.3335 -1.79555
rfemur -25.4435 -1.44682 19.5712
rtibia 61.2593
rfoot -11.9008 -20.5755
rtoes 3.70058
lfemur 5.27461 -12.1485 -33.3698
ltibia 22.7654
lfoot -20.4956 12.7178
ltoes -10.5041
1584
root 9.91785 15.2638 19.9153 -5.48779 5.07007 -356.08
lowerback 10.6369 -0.420679 -3.1969
upperback -3.76873 -1.16607 -1.40184
thorax -10.0069 -0.410356 0.518831
lowerneck -6.2303 -3.65904 -8.43348
upperneck 13.9558 -4.8175 5.74712
head 5.57227 -2.41346 2.86096
rclavicle 2.70223e-015 -4.5969e-015
rhumerus -55.84 -0.882065 -75.0757
rradius 27.3932
rwrist 30.7241
rhand 9.79985 -57.9413
rfingers 7.12502
rthumb 34.9365 -804.512
lclavicle 2.70223e-015 -4.5969e-015
lhumerus -31.8998 11.2778 66.5383
lradius 40.9226
lwrist -6.65774
lhand -8.74144 -29.6444
lfingers 7.12502
lthumb 17.1953 -0.385257
rfemur -25.6492 -1.82561 19.0347
rtibia 58.8122
rfoot -12.8237 -21.3061
rtoes 4.32005
lfemur 6.55582 -12.5246 -34.0159
ltibia 22.0395
lfoot -20.3724 12.7093
ltoes -11.6055
1585
root 9.90961 15.258 20.0878 -5.62568 5.49612 -356.008
lowerback 10.2921 -0.611106 -3.55421
upperback -3.43731 -1.43634 -1.31472
thorax -9.42031 -0.527884 0.858178
lowerneck -6.20821 -3.51973 -8.51324
upperneck 13.6216 -4.63279 5.92228
head 5.45612 -2.31428 2.94323
rclavicle 1.76188e-014 1.29707e-014
rhumerus -56.3692 -0.409977 -74.9737
rradius 27.8642
rwrist 29.4315
rhand 9.59485 -57.0678
rfingers 7.12502
rthumb 34.742 -803.684
lclavicle 1.76188e-014 1.29707e-014
lhumerus -30.434 10.3937 67.4129
lradius 41.5598
lwrist -6.22413
lhand -9.7314 -30.3013
lfingers 7.12502
lthumb 16.2423 -0.96161
rfemur -25.7123 -1.51132 18.9267
rtibia 56.2114
rfoot -13.2445 -22.5217
rtoes 1.4414
lfemur 7.80171 -12.7941 -34.3021
ltibia 21.397
lfoot -20.2918 12.7334
ltoes -9.05029
1586
root 9.9024 15.256 20.2517 -5.52837 5.61336 -356.101
lowerback 10.7308 -0.674773 -3.56415
upperback -3.825 -1.55267 -1.24716
thorax -10.1 -0.564679 0.966278
lowerneck -5.75354 -3.37641 -8.60113
upperneck 13.7531 -4.48632 6.03678
head 5.41201 -2.24842 3.01174
rclavicle -1.81197e-015 1.39149e-015
rhumerus -57.958 0.145763 -74.9653
rradius 28.5087
rwrist 27.9401
rhand 8.92912 -56.496
rfingers 7.12502
rthumb 34.11 -803.255
lclavicle -1.81197e-015 1.39149e-015
lhumerus -30.134 8.77809 68.0745
lradius 42.6529
lwrist -5.56573
lhand -11.015 -32.0016
lfingers 7.12502
lthumb 15.0061 -2.56534
rfemur -26.0612 -0.665347 18.993
rtibia 53.4403
rfoot -13.0068 -23.7113
rtoes 1.55066
lfemur 8.72956 -13.0162 -34.3614
ltibia 20.6413
lfoot -20.1638 12.9597
ltoes -6.69312
1587
root 9.89266 15.2555 20.3613 -4.94252 6.27152 -356.021
lowerback 10.7912 -0.960936 -3.79642
upperback -3.88216 -1.97101 -1.19396
thorax -10.1732 -0.746474 1.23522
lowerneck -5.94495 -3.28589 -8.60925
upperneck 13.6186 -4.34723 6.08237
head 5.39332 -2.17379 3.03455
rclavicle -5.18704e-016 2.48481e-015
rhumerus -58.3569 0.608472 -74.987
rradius 29.0289
rwrist 26.3331
rhand 8.11804 -55.7555
rfingers 7.12502
rthumb 33.3392 -802.684
lclavicle -5.18704e-016 2.48481e-015
lhumerus -28.788 7.74551 68.8046
lradius 43.5007
lwrist -4.92578
lhand -11.5988 -31.8586
lfingers 7.12502
lthumb 14.4436 -2.38124
rfemur -26.9036 -0.387307 18.7101
rtibia 50.5205
rfoot -12.9744 -24.7332
rtoes 4.00151
lfemur 8.84717 -13.2113 -34.2967
ltibia 20.0978
lfoot -19.9325 12.5837
ltoes -6.11718
1588
root 9.8915 15.2521 20.5514 -5.06723 6.12242 -356.164
lowerback 10.2617 -1.0094 -3.78766
upperback -3.63608 -1.98986 -1.10829
thorax -9.5841 -0.768515 1.31043
lowerneck -6.10486 -3.20937 -8.38641
upperneck 13.6357 -4.23128 5.9098
head 5.40881 -2.11438 2.94952
rclavicle 1.05635e-014 -1.29459e-014
rhumerus -58.8818 0.933346 -74.8203
rradius 29.4216
rwrist 24.984
rhand 7.27724 -54.515
rfingers 7.12502
rthumb 32.5396 -801.611
lclavicle 1.05635e-014 -1.29459e-014
lhumerus -27.6391 6.83555 69.3232
lradius 44.1071
lwrist -4.52874
lhand -11.6581 -31.4472
lfingers 7.12502
lthumb 14.3864 -1.96579
rfemur -26.5938 0.707421 18.6749
rtibia 47.4438
rfoot -14.0862 -25.5781
rtoes 6.0453
lfemur 10.017 -13.1705 -34.3759
ltibia 19.5658
lfoot -20.1322 13.0612
ltoes -5.5173
1589
root 9.87873 15.2502 20.7129 -4.84416 6.57575 -356.31
lowerback 10.3177 -1.1816 -3.76666
upperback -3.73996 -2.21884 -1.04824
thorax -9.71857 -0.873963 1.40694
lowerneck -6.40662 -3.24519 -8.1902
upperneck 13.8814 -4.25469 5.6805
head 5.53009 -2.12728 2.83951
rclavicle 1.58469e-014 -3.926e-015
rhumerus -59.5792 0.973827 -74.4307
rradius 29.8166
rwrist 23.9177
rhand 6.42456 -53.545
rfingers 7.12502
rthumb 31.7278 -800.805
lclavicle 1.58469e-014 -3.926e-015
lhumerus -26.6859 5.68001 69.8528
lradius 44.7216
lwrist -4.24679
lhand -11.4066 -32.0489
lfingers 7.12502
lthumb 14.6288 -2.58491
rfemur -26.5472 1.68976 18.5087
rtibia 44.3461
rfoot -15.698 -26.5083
rtoes 9.15075
lfemur 10.777 -13.3703 -34.1962
ltibia 18.8124
lfoot -19.9657 12.8924
ltoes -3.94764
1590
root 9.86881 15.2561 20.8797 -4.68811 6.87704 -356.289
lowerback 9.86272 -1.3777 -4.07187
upperback -3.5297 -2.48231 -0.938995
thorax -9.19012 -0.99414 1.72395
lowerneck -6.52278 -3.16962 -8.07989
upperneck 13.6691 -4.13161 5.56518
head 5.47051 -2.06604 2.79183
rclavicle 2.20092e-014 -2.52457e-014
rhumerus -59.7583 1.28697 -74.1904
rradius 30.2748
rwrist 22.7304
rhand 5.478 -53.0904
rfingers 7.12502
rthumb 30.8258 -800.525
lclavicle 2.20092e-014 -2.52457e-014
lhumerus -25.5362 4.70649 70.333
lradius 45.3918
lwrist -3.64259
lhand -11.3435 -32.3945
lfingers 7.12502
lthumb 14.6896 -2.93494
rfemur -26.4536 2.79498 18.0899
rtibia 41.2722
rfoot -17.0043 -27.3945
rtoes 12.1397
lfemur 11.8722 -13.2193 -34.1826
ltibia 17.6981
lfoot -19.7036 12.523
ltoes -3.85844
